<svg xmlns="http://www.w3.org/2000/svg" viewBox="0 0 512 512">
  <defs>
    <linearGradient id="bg" x1="0%" y1="0%" x2="100%" y2="100%">
      <stop offset="0%" style="stop-color:#7c3aed"/>
      <stop offset="50%" style="stop-color:#a855f7"/>
      <stop offset="100%" style="stop-color:#6366f1"/>
    </linearGradient>
    <linearGradient id="glow" x1="0%" y1="0%" x2="100%" y2="100%">
      <stop offset="0%" style="stop-color:#c084fc"/>
      <stop offset="100%" style="stop-color:#818cf8"/>
    </linearGradient>
  </defs>
  <rect width="512" height="512" rx="96" fill="url(#bg)"/>
  <!-- Brain icon -->
  <g transform="translate(256,256)" fill="none" stroke="url(#glow)" stroke-width="22" stroke-linecap="round" stroke-linejoin="round">
    <!-- Left hemisphere -->
    <path d="M-8,-90 C-65,-90 -110,-55 -110,0 C-110,35 -92,62 -65,73 C-70,95 -48,112 -22,112 C-10,112 -8,106 -8,106"/>
    <path d="M-8,-90 C-45,-83 -72,-50 -72,-12"/>
    <path d="M-8,-33 C-45,-28 -65,0 -60,35"/>
    <!-- Right hemisphere -->
    <path d="M8,-90 C65,-90 110,-55 110,0 C110,35 92,62 65,73 C70,95 48,112 22,112 C10,112 8,106 8,106"/>
    <path d="M8,-90 C45,-83 72,-50 72,-12"/>
    <path d="M8,-33 C45,-28 65,0 60,35"/>
    <!-- Center line -->
    <line x1="0" y1="-90" x2="0" y2="112"/>
  </g>
</svg>
